<svg xmlns="http://www.w3.org/2000/svg" width="47.679" height="47.465" viewBox="0 0 47.679 47.465"><defs><style>.a{fill:#c1a07f;fill-rule:evenodd;}</style></defs><g transform="translate(0 0)"><path class="a" d="M11.56,44.263C9.541,48.85,0,48.3,0,42.428V19.309c0-4.954,9.174-5.5,11.376-1.835,4.22-2.018,8.991-5.138,8.44-10.459-1.1-9.908,7.339-8.807,10.275.55,1.1,3.486.367,6.055-.55,8.991H42.936c5.321.183,6.055,6.605,2.752,8.807a5.246,5.246,0,0,1-1.835,7.706c1.835,2.385.55,6.605-2.018,7.89,1.284,2.385-.183,6.239-5.138,6.422C28.44,47.75,19.266,47.566,11.56,44.263Zm-1.468-1.835c0,4.22-8.257,4.22-8.257,0V19.309c0-3.3,8.257-3.119,8.257,0Zm1.835,0c7.339,3.486,16.33,3.67,24.587,3.119,5.138-.183,4.954-4.771,1.835-4.771H35.963c-.917,0-1.284-1.284,0-1.284H40.55c2.385-.183,4.037-6.055,0-6.055H37.431c-1.284,0-1.284-1.468,0-1.468h4.037c3.853,0,4.954-6.239.55-6.239h-3.3c-1.468,0-1.284-1.468,0-1.468h4.22a2.937,2.937,0,1,0,0-5.872H26.972c1.468-4.037,2.569-6.422,1.284-10.275-2.018-6.972-7.523-8.991-6.605-1.284.55,6.055-4.587,9.908-9.725,12.477Z" transform="translate(0 -0.053)"/></g></svg>