<svg xmlns="http://www.w3.org/2000/svg" width="47.538" height="44.542" viewBox="0 0 47.538 44.542"><defs><style>.a{fill:#c1a07f;}</style></defs><g transform="translate(0 0.001)"><g transform="translate(0 -0.001)"><g transform="translate(3.213 24.75)"><path class="a" d="M157.02,578.556h-39.1c-.524,0-1.058-.031-1.587,0h-.067l.519.519V561.1c0-.239.021-.493,0-.732v-.031l-.519.519h39.1c.524,0,1.058.031,1.587,0h.067l-.519-.519v16.438c0,.757-.031,1.52,0,2.277v.031a.519.519,0,0,0,1.037,0V562.643c0-.757.031-1.52,0-2.277v-.031a.527.527,0,0,0-.519-.519h-39.1c-.529,0-1.058-.01-1.587,0h-.067a.527.527,0,0,0-.519.519v16.438c0,.757-.031,1.52,0,2.277v.031a.527.527,0,0,0,.519.519h39.1c.529,0,1.058.01,1.587,0h.067A.522.522,0,0,0,157.02,578.556Z" transform="translate(-115.733 -559.811)"/></g><g transform="translate(0 6.872)"><path class="a" d="M96.173,215.157h-35.7c-.482,0-.97-.016-1.458,0h-.062a.529.529,0,0,0-.5.379c-.265.742-.529,1.489-.788,2.23q-.848,2.4-1.7,4.8c-.534,1.509-1.069,3.024-1.608,4.533-.15.425-.3.856-.456,1.281a1.771,1.771,0,0,0-.1.638v4.5a.527.527,0,0,0,.519.519H98.927c.6,0,1.2.016,1.805,0h.078a.527.527,0,0,0,.519-.519v-4.093a2.9,2.9,0,0,0-.052-.9c-.114-.342-.239-.68-.363-1.022-.508-1.432-1.011-2.863-1.52-4.295q-.879-2.474-1.753-4.948c-.316-.9-.622-1.81-.96-2.7-.005-.016-.01-.026-.016-.041a.519.519,0,1,0-1,.275c.259.737.524,1.478.783,2.215q.848,2.4,1.7,4.8l1.6,4.528c.15.431.306.861.456,1.292a1.052,1.052,0,0,0,.088.254c.041.057,0-.2-.016-.093a1.676,1.676,0,0,0,0,.228v4.5l.519-.519H56.191c-.6,0-1.209-.031-1.805,0h-.078l.519.519v-4.072a5.5,5.5,0,0,0,0-.654c-.01-.1-.047.14-.016.093a.442.442,0,0,0,.031-.088c.124-.348.249-.7.373-1.048.508-1.432,1.017-2.868,1.525-4.3q.871-2.451,1.738-4.9c.213-.607.431-1.209.643-1.816.1-.3.233-.591.316-.892.005-.016.01-.026.016-.042-.166.125-.332.254-.5.379h35.7c.482,0,.97.016,1.458,0h.062A.514.514,0,0,0,96.173,215.157Z" transform="translate(-53.8 -215.143)"/></g><g transform="translate(28.619 24.754)"><path class="a" d="M616.622,578.641H606.066l.519.519V561.181c0-.239.021-.493,0-.732v-.031l-.519.519h10.556l-.519-.519v16.438c0,.757-.031,1.52,0,2.277v.031a.519.519,0,0,0,1.037,0V562.727c0-.757.031-1.52,0-2.277v-.031a.527.527,0,0,0-.519-.519H606.066a.527.527,0,0,0-.519.519v16.438c0,.757-.031,1.52,0,2.277v.031a.527.527,0,0,0,.519.519h10.556A.522.522,0,0,0,616.622,578.641Z" transform="translate(-605.533 -559.9)"/></g><g transform="translate(8.035 24.749)"><path class="a" d="M225.221,573.608h-16l.519.519V560.319l-.519.519h16l-.519-.519v13.808a.519.519,0,0,0,1.037,0V560.319a.527.527,0,0,0-.519-.519h-16a.527.527,0,0,0-.519.519v13.808a.527.527,0,0,0,.519.519h16A.519.519,0,0,0,225.221,573.608Z" transform="translate(-208.7 -559.8)"/></g><g transform="translate(4.637)"><path class="a" d="M180.936,87.088h-35.7c-.482,0-.975-.031-1.458,0h-.062l.519.519V83.192l-.519.519h35.7c.482,0,.975.031,1.458,0h.062l-.519-.519v4.414a.519.519,0,0,0,1.037,0V83.192a.527.527,0,0,0-.519-.519h-35.7c-.482,0-.97-.016-1.458,0h-.062a.527.527,0,0,0-.519.519v4.414a.527.527,0,0,0,.519.519h35.7c.482,0,.97.016,1.458,0h.062A.519.519,0,0,0,180.936,87.088Z" transform="translate(-143.2 -82.667)"/></g></g></g></svg>